<svg xmlns="http://www.w3.org/2000/svg" xmlns:xlink="http://www.w3.org/1999/xlink" width="51pt" height="53pt"
            viewBox="0 0 14 18" version="1.1">
            <g id="surface1">
              <path style=" stroke:none;fill-rule:nonzero;fill:#16697A;"
                d="M 6.234375 17.636719 C 0.976562 10.230469 0 9.472656 0 6.75 C 0 3.023438 3.113281 0 6.949219 0 C 10.785156 0 13.898438 3.023438 13.898438 6.75 C 13.898438 9.472656 12.921875 10.230469 7.664062 17.636719 C 7.316406 18.121094 6.578125 18.121094 6.234375 17.636719 Z M 6.949219 9.5625 C 8.546875 9.5625 9.84375 8.304688 9.84375 6.75 C 9.84375 5.195312 8.546875 3.9375 6.949219 3.9375 C 5.347656 3.9375 4.054688 5.195312 4.054688 6.75 C 4.054688 8.304688 5.347656 9.5625 6.949219 9.5625 Z M 6.949219 9.5625 " />
            </g>
          </svg>
