<svg xmlns="http://www.w3.org/2000/svg" xmlns:xlink="http://www.w3.org/1999/xlink" width="17pt" height="17pt"
            viewBox="0 0 18 18" version="1.1">
            <g id="surface1">
              <path style="fill:#8EC2F2;"
                d="M 17.484375 12.71875 L 13.546875 11.03125 C 13.203125 10.882812 12.800781 10.984375 12.5625 11.273438 L 10.820312 13.40625 C 8.085938 12.117188 5.882812 9.914062 4.59375 7.175781 L 6.722656 5.429688 C 7.015625 5.195312 7.113281 4.792969 6.964844 4.445312 L 5.277344 0.507812 C 5.113281 0.136719 4.707031 -0.0703125 4.3125 0.0234375 L 0.65625 0.867188 C 0.273438 0.953125 0 1.296875 0 1.6875 C 0 10.703125 7.308594 18 16.3125 18 C 16.703125 18 17.046875 17.730469 17.132812 17.34375 L 17.976562 13.6875 C 18.070312 13.289062 17.863281 12.882812 17.484375 12.71875 Z M 17.484375 12.71875 " />
            </g>
          </svg>